<svg width="121" height="109" viewBox="0 0 121 109" fill="none" xmlns="http://www.w3.org/2000/svg">
<path d="M70.2603 60.8704C69.0154 60.9851 67.8163 61.3888 66.7377 62.0557C63.9249 63.7387 62.3743 66.5663 63.2746 68.371C64.1748 70.1756 67.1847 70.2734 69.9974 68.5905C71.0925 67.9565 72.0504 67.07 72.812 65.9858C73.1644 65.4592 73.1983 64.7332 72.8987 64.1344L71.7293 61.79C71.4316 61.1898 70.8551 60.8293 70.2603 60.8704Z" fill="#D5D6DB"/>
<path d="M63.0341 33.871C62.1314 33.9543 61.2618 34.2472 60.4796 34.7309C58.4405 35.951 57.3155 38.0012 57.9677 39.3088C58.6199 40.6163 60.8033 40.6871 62.8421 39.4672C63.6362 39.0071 64.3306 38.3639 64.883 37.5776C65.1382 37.1959 65.1627 36.6699 64.9455 36.2357L64.0987 34.5381C63.8831 34.1031 63.4654 33.8413 63.0341 33.871Z" fill="#D5D6DB"/>
<path d="M51.1661 33.2535C50.9617 33.192 50.748 33.2182 50.5667 33.3266L45.7841 36.1777C45.3841 36.4153 45.2459 36.9815 45.476 37.4428C45.5287 37.5484 45.5983 37.6429 45.6812 37.7208L58.3552 49.6941L74.3027 40.1871L51.1661 33.2535Z" fill="#029BC5"/>
<path d="M103.531 37.3038L59.0804 65.828L32.4434 74.6229L18.7103 75.5646L17.0437 71.953L91.1861 25.5973C93.3953 24.208 95.8945 23.5691 98.4309 23.7453C99.542 23.8302 100.646 24.0839 101.718 24.4998C102.668 24.8591 103.577 25.3795 104.417 26.0455C105.355 26.7975 107.097 27.1896 107.709 28.4528C107.711 28.4513 109.263 34.0153 103.531 37.3038Z" fill="#E1E6E9"/>
<path d="M58.734 58.2731L40.7082 93.3642C40.4857 93.8627 40.6589 94.4967 41.0947 94.7802C41.3621 94.9542 41.6803 94.9616 41.9403 94.7999L46.7902 91.7885C47.723 91.209 48.5361 90.4062 49.1794 89.4297L85.0066 41.0462L58.734 58.2731Z" fill="#029BC5"/>
<path d="M10.0084 57.7935C9.68061 57.6126 9.30087 57.6135 8.98895 57.7957L5.07251 60.0838C4.53885 60.3953 4.35558 61.1365 4.663 61.7397C4.72157 61.8544 4.79553 61.9592 4.88253 62.0498L16.751 74.4507L28.2961 67.8792L10.0084 57.7935Z" fill="#029BC5"/>
<path d="M19.9647 75.1722L14.1692 84.9032C14.0841 85.0427 14.1143 85.2426 14.2366 85.3495C14.3248 85.4265 14.4411 85.4365 14.5325 85.375L18.2857 83.0312C18.3149 83.013 18.3409 82.9883 18.362 82.9585L26.9221 70.8329L19.9647 75.1722Z" fill="#029BC5"/>
<path d="M101.415 23.9597C100.33 23.5662 99.2122 23.3275 98.0875 23.2486C97.0712 24.8888 96.4623 26.8244 96.3215 28.8622C96.3234 29.2767 96.6198 29.6267 96.9838 29.6437C97.0969 29.6489 97.2079 29.621 97.3063 29.5625L104.149 25.4236C103.297 24.7923 102.377 24.2994 101.415 23.9597Z" fill="#029BC5"/>
<path d="M86.1564 31.9502L90.4729 29.5342L95.0247 38.1243L90.7082 40.5402L86.1564 31.9502Z" fill="#D5D6DB"/>
<path d="M83.212 35.6272C82.6893 35.92 82.5102 36.6277 82.8125 37.2077L83.3022 38.1475C83.6218 38.7171 84.2963 38.9257 84.8088 38.6133C85.2966 38.3157 85.4653 37.6489 85.1946 37.0873L84.7049 36.1476C84.4029 35.568 83.7348 35.335 83.212 35.6272Z" fill="#3A556A"/>
<path d="M79.0851 38.3998C78.5624 38.6926 78.3833 39.4003 78.6856 39.9803L79.1753 40.92C79.4949 41.4897 80.1694 41.6983 80.6819 41.3859C81.1697 41.0883 81.3384 40.4215 81.0677 39.8599L80.578 38.9201C80.2758 38.3407 79.6077 38.1077 79.0851 38.3998Z" fill="#3A556A"/>
<path d="M74.957 41.1729C74.4349 41.4663 74.2566 42.1732 74.5586 42.7528L75.0482 43.6925C75.3679 44.2621 76.0424 44.4707 76.5549 44.1583C77.0427 43.8607 77.2114 43.194 76.9407 42.6323L76.451 41.6926C76.1488 41.1126 75.48 40.8799 74.957 41.1729Z" fill="#3A556A"/>
<path d="M70.8303 43.9453C70.3082 44.2388 70.1299 44.9457 70.4319 45.5252L70.9215 46.465C71.2412 47.0346 71.9157 47.2432 72.4282 46.9308C72.9159 46.6332 73.0847 45.9664 72.814 45.4048L72.3243 44.4651C72.0218 43.8851 71.353 43.6525 70.8303 43.9453Z" fill="#3A556A"/>
<path d="M66.7036 46.7176C66.1813 47.0109 66.003 47.7174 66.305 48.2967L66.7948 49.236C67.0967 49.815 67.765 50.0474 68.2874 49.7549C68.8097 49.4625 68.9885 48.7561 68.6865 48.177L68.1968 47.2378C67.8955 46.6584 67.2275 46.4253 66.7047 46.717C66.7042 46.7172 66.704 46.7173 66.7036 46.7176Z" fill="#3A556A"/>
<path d="M62.5767 49.4901C62.0544 49.7833 61.8761 50.4899 62.1781 51.0692L62.6679 52.0085C62.9698 52.5875 63.6381 52.8198 64.1605 52.5274C64.6829 52.235 64.8616 51.5285 64.5596 50.9495L64.0699 50.0102C63.7686 49.4308 63.1006 49.1977 62.5778 49.4894C62.5773 49.4897 62.5769 49.4899 62.5767 49.4901Z" fill="#3A556A"/>
<path d="M58.4497 52.2626C57.9274 52.5559 57.7491 53.2625 58.0511 53.8418L58.5409 54.781C58.8435 55.3597 59.512 55.5909 60.0338 55.2979C60.5547 55.0054 60.733 54.3004 60.4324 53.7222L59.9426 52.7829C59.6408 52.2035 58.9725 51.9706 58.4497 52.2626Z" fill="#3A556A"/>
<path d="M54.3226 55.0351C53.8004 55.3284 53.622 56.035 53.9241 56.6143L54.4139 57.5536C54.7164 58.1322 55.385 58.3635 55.9067 58.0704C56.4277 57.7779 56.606 57.0729 56.3054 56.4947L55.8156 55.5554C55.5138 54.976 54.8455 54.743 54.3226 55.0351Z" fill="#3A556A"/>
<path d="M50.1959 57.8076C49.6737 58.1008 49.4953 58.8074 49.7974 59.3867L50.2871 60.326C50.5897 60.9046 51.2582 61.1359 51.78 60.8428C52.3009 60.5503 52.4793 59.8453 52.1787 59.2671L51.6889 58.3279C51.3868 57.7486 50.7186 57.5156 50.1959 57.8076Z" fill="#3A556A"/>
<path d="M46.0678 60.5807C45.5454 60.8732 45.3666 61.5796 45.6686 62.1587L45.6692 62.1599L46.159 63.0992C46.4616 63.6779 47.1301 63.9091 47.6519 63.6161C48.1728 63.3235 48.3511 62.6185 48.0505 62.0403L47.5607 61.101C47.2589 60.5216 46.5906 60.2887 46.0678 60.5807Z" fill="#3A556A"/>
<path d="M41.942 63.3525C41.4196 63.6449 41.2409 64.3514 41.5428 64.9304L41.5435 64.9316L42.0333 65.8709C42.3358 66.4496 43.0044 66.6808 43.5262 66.3878C44.0471 66.0952 44.2254 65.3902 43.9248 64.8121L43.435 63.8728C43.133 63.2935 42.4647 63.0605 41.942 63.3525Z" fill="#3A556A"/>
</svg>
